<svg width="23" height="24" viewBox="0 0 23 24" fill="none" xmlns="http://www.w3.org/2000/svg">
<path d="M4.85885 8.61797C5.08063 10.7504 5.77151 12.6781 6.93155 14.4437C8.04894 16.1326 9.49051 17.4803 11.2476 18.5039C11.3244 18.3333 11.3841 18.1712 11.4694 18.0347C11.657 17.7362 11.8446 17.4377 12.0749 17.1732C12.4332 16.7638 12.8853 16.67 13.3885 16.8662C14.8045 17.4035 16.2119 17.958 17.6278 18.4953C17.7984 18.5636 17.9604 18.6233 18.131 18.6915C18.6172 18.8877 18.8987 19.3057 18.8902 19.8345C18.8646 21.839 17.4742 23.434 15.4868 23.7411C14.8471 23.8349 14.2244 23.724 13.6103 23.5705C10.6505 22.8284 8.07453 21.3954 5.90799 19.2545C3.53673 16.9003 1.99289 14.0855 1.29346 10.8101C0.798736 8.48147 0.807215 6.15288 1.32753 3.83281C1.85637 1.46155 4.37269 0.156507 6.64159 1.06065C7.28132 1.31655 7.53721 1.71742 7.49456 2.39979C7.40074 4.05455 7.31542 5.70079 7.2216 7.35555C7.18748 7.90145 6.88894 8.27678 6.36863 8.43884C5.97626 8.56679 5.57535 8.635 5.15739 8.62647C5.0721 8.61794 4.97827 8.61797 4.85885 8.61797Z" fill="#FCFBE3"/>
<path d="M22.4382 9.05268C22.0117 7.74764 21.3379 6.55349 20.4508 5.47875C19.5637 4.41254 18.4975 3.53398 17.2948 2.87719C16.041 2.19482 14.7019 1.7854 13.2945 1.64893C13.2689 1.64893 13.2517 1.64893 13.2262 1.64893C13.0556 1.64893 12.8935 1.70863 12.7656 1.81952C12.6206 1.93894 12.5268 2.11805 12.5097 2.32276C12.4756 2.7066 12.7485 3.0478 13.1409 3.09897C15.6571 3.40604 17.7384 4.52343 19.3249 6.42555C20.9114 8.32768 21.6365 10.571 21.483 13.1043C21.4574 13.4967 21.7474 13.8293 22.1483 13.8635C22.1653 13.8635 22.1909 13.8635 22.208 13.8635C22.3786 13.8635 22.5406 13.8038 22.6685 13.6929C22.8135 13.5735 22.9074 13.3943 22.9244 13.2067C23.0524 11.7993 22.8903 10.4004 22.4382 9.05268Z" fill="#FCFBE3"/>
<path d="M13.0124 4.79639C12.9954 4.79639 12.9699 4.79639 12.9528 4.79639C12.586 4.79639 12.2704 5.08642 12.2363 5.46173C12.2022 5.84556 12.4751 6.18672 12.8589 6.2379C14.5052 6.45114 15.8699 7.19325 16.9105 8.43858C17.9512 9.68392 18.4374 11.1595 18.3521 12.8143C18.335 13.1981 18.6165 13.5308 19.0174 13.5649C19.043 13.5649 19.06 13.5649 19.0856 13.5649C19.2562 13.5649 19.4183 13.5052 19.5462 13.3943C19.6912 13.2664 19.7851 13.0958 19.8021 12.8996C19.9557 10.9122 19.2988 8.96742 17.9767 7.41502C16.6802 5.91379 14.8719 4.95845 13.0124 4.79639Z" fill="#FCFBE3"/>
<path d="M12.7229 8.21655C12.6973 8.21655 12.6718 8.20801 12.6376 8.20801C12.467 8.20801 12.3135 8.26771 12.1856 8.37006C12.032 8.49801 11.9382 8.66864 11.9211 8.87335C11.887 9.2316 12.1344 9.55572 12.4841 9.63248C14.0706 9.97367 14.8724 10.929 14.9151 12.5496C14.9236 12.9164 15.2051 13.2064 15.5804 13.2405C15.5974 13.2405 15.623 13.2405 15.6401 13.2405C15.8107 13.2405 15.9813 13.1808 16.1092 13.0614C16.2542 12.9334 16.348 12.7543 16.3566 12.5582C16.4163 11.5175 16.0666 10.494 15.3671 9.65806C14.6848 8.85626 13.738 8.33596 12.7229 8.21655Z" fill="#FCFBE3"/>
</svg>
