<svg width="29" height="28" viewBox="0 0 29 28" fill="none" xmlns="http://www.w3.org/2000/svg">
<path d="M28.2575 14.2769C28.2575 21.2116 23.1908 26.9521 16.5547 28.0098C16.5377 27.95 16.5291 27.7794 16.5291 27.7794L16.5633 18.3115L19.7193 18.2859L20.3334 14.1234H16.5633C16.5633 14.1234 16.5121 12.2639 16.5547 11.4024C16.6144 10.0803 17.365 9.36382 18.6871 9.30411C19.1904 9.27852 19.7022 9.27855 20.2054 9.29561C20.5466 9.31267 20.7001 9.22736 20.6916 8.85205C20.666 7.96496 20.6746 7.07787 20.6916 6.19931C20.7001 5.87518 20.5808 5.76429 20.2737 5.72164C19.3099 5.58516 18.346 5.50839 17.3821 5.50839C14.1749 5.52545 12.1364 7.54701 12.1108 10.7712C12.1022 11.846 12.0852 14.1234 12.0852 14.1234L8.44301 14.1319L8.4515 18.32H12.0852L12.1193 27.6429C12.1193 27.6429 12.1107 27.9159 12.0766 28.0098C5.47464 26.9265 0.433594 21.1945 0.433594 14.2855C0.433594 6.60023 6.66032 0.373544 14.3456 0.373544C22.0308 0.365014 28.2575 6.59169 28.2575 14.2769Z" fill="#FCFBE3"/>
</svg>
