<svg width="25" height="26" viewBox="0 0 25 26" fill="none" xmlns="http://www.w3.org/2000/svg">
<path d="M24.2019 13.3282C24.2019 11.3151 24.2275 9.30211 24.0569 7.28911C23.7584 3.8687 21.7198 1.47186 18.3249 1.10508C14.1966 0.661534 10.0341 0.721267 5.89725 1.08804C2.87774 1.35246 0.753776 3.43368 0.241995 6.4276C-0.133312 8.57708 0.139672 10.7522 0.0629043 12.9102C0.0629043 14.6502 0.0202226 16.3988 0.0714007 18.1474C0.173757 21.9176 2.42563 24.4765 6.16163 24.8774C9.84646 25.2782 13.5569 25.0565 17.2502 24.9882C18.4615 24.9626 19.6556 24.6471 20.7133 24.0756C22.8372 22.9241 23.8181 21.0134 24.0569 18.6421C24.236 16.8765 24.2019 15.1023 24.2019 13.3282ZM22.0439 18.3862C21.9501 21.1669 20.0907 22.8387 17.2844 22.9326C15.5443 22.9923 13.7957 22.9411 11.3903 22.9411C9.97439 22.8558 7.8846 23.1629 5.82894 22.7705C3.64534 22.3525 2.31473 20.8769 2.17825 18.6677C1.93089 14.8805 1.87975 11.0934 2.16976 7.30618C2.35741 4.84963 4.02924 3.18632 6.49433 3.02426C10.1962 2.7769 13.8895 2.81102 17.5914 3.02426C20.2356 3.16926 21.9416 4.80697 22.0439 7.55353C22.1634 11.1616 22.1719 14.7782 22.0439 18.3862Z" fill="#FCFBE3"/>
<path d="M19.9031 6.54716C19.886 7.2466 19.2549 7.86071 18.564 7.84365C17.8987 7.82659 17.2163 7.07598 17.2419 6.3936C17.276 5.66005 17.8731 5.09709 18.5981 5.11415C19.3487 5.12268 19.9202 5.7539 19.9031 6.54716Z" fill="#FCFBE3"/>
<path d="M12.1236 6.81154C8.83116 6.71771 5.82018 9.99312 5.89694 12.9956C5.98224 16.3904 8.58373 19.0858 12.0127 19.0687C15.3478 19.3929 18.3588 16.0492 18.2735 12.9871C18.1711 9.55813 15.5184 6.9139 12.1236 6.81154ZM12.4051 17.1922C9.94853 17.2007 7.92695 15.2645 7.96106 12.9273C7.98665 10.6073 9.90583 8.76484 12.2259 8.81602C14.3925 8.8672 16.2519 10.829 16.2093 13.0382C16.1666 15.2133 14.3584 17.1837 12.4051 17.1922Z" fill="#FCFBE3"/>
</svg>
