<svg width="27" height="28" viewBox="0 0 27 28" fill="none" xmlns="http://www.w3.org/2000/svg">
<path d="M12.024 20.504C11.4184 22.5085 11.1626 24.6067 10.0366 26.4065C9.69545 26.9439 10.1987 26.9695 10.4887 27.0377C11.8279 27.3363 13.1756 27.4557 14.5574 27.3619C21.5602 26.8501 27.0022 20.9219 26.8401 13.9447C26.6781 6.78824 20.9887 1.02217 13.9261 0.851575C5.45615 0.646863 -1.13728 8.49417 0.594244 16.785C1.45574 20.8963 3.80138 23.9415 7.51179 25.9289C7.83592 26.0995 8.33064 26.5174 8.32211 25.6559C8.30506 23.8391 8.87653 22.1331 9.24331 20.3931C9.66979 18.3374 10.5569 16.35 9.90011 14.1664C9.72951 13.5949 9.92568 12.9637 10.1389 12.3752C10.301 11.9401 10.5398 11.5563 10.8639 11.2237C11.4866 10.5925 12.2628 10.4304 13.0732 10.7289C13.8664 11.019 14.0455 11.7354 14.037 12.5031C14.0199 14.0555 13.3205 15.4459 12.9623 16.9215C12.7491 17.8086 12.8343 18.5933 13.5508 19.2075C14.3185 19.8728 15.197 19.9325 16.1097 19.5657C16.8774 19.2586 17.4574 18.7213 17.8924 18.0218C19.1378 16.0344 19.5216 13.8423 19.1719 11.5648C18.9075 9.82478 17.8242 8.62209 16.1609 7.98237C13.6873 7.03557 10.5995 7.71795 8.87654 9.5689C7.01707 11.5734 6.76118 13.9191 8.10887 16.6742C8.433 17.3395 8.18567 18.0219 7.80184 18.4654C7.40094 18.926 6.87207 18.3971 6.53088 18.1071C4.95289 16.7765 4.56908 14.9597 4.77379 13.0405C5.27705 8.34917 9.38831 5.19318 14.5317 5.44907C18.6857 5.65379 21.799 8.25535 22.3279 12.1108C22.6179 14.2261 22.1829 16.2818 21.1935 18.1839C19.2316 21.937 15.5042 22.9008 12.024 20.504Z" fill="#FCFBE3"/>
</svg>
