<svg width="24" height="24" viewBox="0 0 24 24" fill="none" xmlns="http://www.w3.org/2000/svg">
<path d="M10.3766 0.518931C2.67425 1.81544 -1.51376 9.93572 2.00047 16.9045C2.17959 17.2542 2.20518 17.7831 2.08577 18.1584C1.56546 19.8728 0.95978 21.5702 0.311523 23.515C0.806246 23.3871 1.07921 23.3359 1.35216 23.2506C2.75956 22.807 4.16695 22.3805 5.55729 21.8944C6.23966 21.6555 6.82824 21.6726 7.51062 21.9882C9.68569 22.9862 11.9802 23.2335 14.3344 22.7303C19.5887 21.6129 23.2053 16.913 23.2906 11.8976C23.4356 4.38292 16.4838 -0.504633 10.3766 0.518931ZM11.9887 20.8623C10.5984 20.8623 9.16541 20.3334 7.84331 19.8302C7.11829 19.5572 6.55528 19.3866 5.83025 19.6937C5.13935 19.9837 4.40583 20.1458 3.68933 20.3675C3.60404 20.3334 3.51874 20.2908 3.43344 20.2567C4.69584 18.329 4.167 16.623 3.39079 14.6441C1.48014 9.77366 4.55081 4.20377 9.4298 2.83049C14.5476 1.38897 20.1772 4.47673 21.0899 10.0552C22.1135 16.4012 17.3965 20.8793 11.9887 20.8623Z" fill="black"/>
<path d="M0.311523 23.515C0.95978 21.5787 1.56546 19.8814 2.08577 18.1584C2.20518 17.7745 2.17959 17.2542 2.00047 16.9045C-1.51376 9.93572 2.66572 1.80691 10.3766 0.518926C16.4753 -0.504638 23.4355 4.38288 23.299 11.9061C23.2138 16.913 19.5972 21.6129 14.3429 22.7388C11.9887 23.242 9.70272 22.9862 7.51911 21.9967C6.82821 21.6811 6.24824 21.6641 5.56586 21.9029C4.17552 22.3805 2.75961 22.8156 1.36074 23.2591C1.08779 23.3359 0.806246 23.3956 0.311523 23.515ZM3.42486 20.2567C3.51016 20.2908 3.59546 20.3334 3.68075 20.3675C4.39725 20.1458 5.13938 19.9837 5.82176 19.6937C6.54678 19.3866 7.11824 19.5572 7.83473 19.8302C9.16536 20.3334 10.5899 20.8537 11.9802 20.8622C17.388 20.8793 22.1049 16.4012 21.0728 10.0466C20.1687 4.46819 14.5305 1.38896 9.41272 2.83048C4.53374 4.20376 1.46307 9.77365 3.37372 14.6441C4.15845 16.6145 4.68726 18.3204 3.42486 20.2567Z" fill="#FCFBE3"/>
<path d="M17.0723 16.6316C16.5008 17.0325 15.7929 17.2286 15.2896 17.4504C13.2169 17.0239 11.4768 16.3501 10.0523 15.0706C8.39757 13.5779 7.00723 11.872 6.42721 9.66279C6.10308 8.44304 6.53808 7.38535 7.4337 6.54091C8.27814 5.73912 9.23353 5.96092 9.67708 7.03566C9.86473 7.48773 9.99261 7.9739 10.2059 8.41744C10.5385 9.07423 10.4277 9.64574 9.89032 10.0978C9.36148 10.5414 9.36143 11.019 9.79644 11.4455C10.7176 12.3667 11.6644 13.2538 12.6539 14.1068C13.1742 14.5588 13.7542 14.5162 14.1466 13.8679C14.6669 13.0235 15.3067 12.9467 16.0999 13.4841C16.3388 13.6547 16.6202 13.7656 16.8761 13.9106C18.147 14.5759 18.2664 15.8042 17.0723 16.6316Z" fill="black"/>
<path d="M15.2807 17.4501C13.208 17.0236 11.468 16.3498 10.0435 15.0704C8.38878 13.5777 6.99844 11.8717 6.41842 9.66254C6.0943 8.44279 6.52929 7.38509 7.42491 6.53212C8.26935 5.73033 9.22466 5.95213 9.6682 7.02687C9.85586 7.47894 9.98382 7.96515 10.1971 8.40016C10.5297 9.05695 10.4188 9.62841 9.88145 10.0805C9.36114 10.524 9.36117 11.0017 9.78765 11.4282C10.7089 12.3494 11.6556 13.2365 12.6365 14.0894C13.1654 14.5415 13.7369 14.4989 14.1292 13.8506C14.6495 13.0062 15.2893 12.9294 16.0826 13.4668C16.3214 13.6374 16.6028 13.7483 16.8587 13.8847C18.1296 14.5586 18.2491 15.7954 17.055 16.6228C16.5005 17.0322 15.784 17.2284 15.2807 17.4501Z" fill="#FCFBE3"/>
</svg>
