<svg width="23" height="17" viewBox="0 0 23 17" fill="none" xmlns="http://www.w3.org/2000/svg">
<path d="M11.6696 16.2144C9.34956 16.2144 7.02948 16.2315 4.71794 16.2144C2.25286 16.1974 0.649273 14.5938 0.623684 12.1202C0.598095 9.73188 0.598095 7.35211 0.623684 4.96379C0.649273 2.439 2.27843 0.809849 4.78616 0.801319C9.34954 0.792789 13.9214 0.792789 18.4848 0.801319C20.8987 0.809849 22.5279 2.42196 22.5535 4.81028C22.5706 7.30095 22.5706 9.79158 22.5535 12.2823C22.5279 14.5853 20.9414 16.1803 18.6384 16.2059C16.3098 16.2315 13.9897 16.2059 11.6696 16.2144ZM9.36662 11.4549C11.2687 10.4399 13.0685 9.47599 15.0047 8.45243C13.077 7.45445 11.2943 6.53327 9.36662 5.5353C9.36662 7.59096 9.36662 9.43336 9.36662 11.4549Z" fill="#FCFBE3"/>
</svg>
